<svg width="19" height="17" viewBox="0 0 19 17" fill="none" xmlns="http://www.w3.org/2000/svg">
<path d="M17.1429 7.14286H1.14286C0.508929 7.14286 0 7.65179 0 8.28571C0 8.91964 0.508929 9.42857 1.14286 9.42857H1.27679L2.30357 15.3393C2.40179 15.8839 2.875 16.2857 3.42857 16.2857H14.8571C15.4107 16.2857 15.8839 15.8839 15.9821 15.3393L17.0089 9.42857H17.1429C17.7768 9.42857 18.2857 8.91964 18.2857 8.28571C18.2857 7.65179 17.7768 7.14286 17.1429 7.14286ZM4.33036 14.2857C4.3125 14.2857 4.30357 14.2857 4.28571 14.2857C3.99107 14.2857 3.74107 14.0536 3.71429 13.7589L3.42857 10.0446C3.40179 9.73214 3.64286 9.45536 3.95536 9.42857C4.26786 9.40179 4.54464 9.64286 4.57143 9.95536L4.85714 13.6696C4.88393 13.9821 4.64286 14.2589 4.33036 14.2857ZM8 13.7143C8 14.0268 7.74107 14.2857 7.42857 14.2857C7.11607 14.2857 6.85714 14.0268 6.85714 13.7143V10C6.85714 9.6875 7.11607 9.42857 7.42857 9.42857C7.74107 9.42857 8 9.6875 8 10V13.7143ZM11.4286 13.7143C11.4286 14.0268 11.1696 14.2857 10.8571 14.2857C10.5446 14.2857 10.2857 14.0268 10.2857 13.7143V10C10.2857 9.6875 10.5446 9.42857 10.8571 9.42857C11.1696 9.42857 11.4286 9.6875 11.4286 10V13.7143ZM14.5714 13.7589C14.5446 14.0536 14.2946 14.2857 14 14.2857C13.9821 14.2857 13.9732 14.2857 13.9554 14.2857C13.6429 14.2589 13.4018 13.9821 13.4286 13.6696L13.7143 9.95536C13.7411 9.64286 14.0179 9.40179 14.3304 9.42857C14.6429 9.45536 14.8839 9.73214 14.8571 10.0446L14.5714 13.7589ZM4.25 2.89286C4.375 2.36607 4.83036 2 5.36607 2H6.85714C6.85714 2.3125 7.11607 2.57143 7.42857 2.57143H10.8571C11.1696 2.57143 11.4286 2.3125 11.4286 2H12.9196C13.4554 2 13.9107 2.36607 14.0357 2.89286L14.8661 6.57143H16.0446L15.1429 2.63393C14.9107 1.58928 13.9911 0.857142 12.9196 0.857142H11.4286C11.4286 0.544642 11.1696 0.285713 10.8571 0.285713H7.42857C7.11607 0.285713 6.85714 0.544642 6.85714 0.857142H5.36607C4.29464 0.857142 3.375 1.58928 3.14286 2.63393L2.24107 6.57143H3.41964L4.25 2.89286Z" fill="#212027"/>
</svg>
