<svg width="273" height="40" viewBox="0 0 273 40" fill="none" xmlns="http://www.w3.org/2000/svg">
<path d="M12.0181 32.9007H0V5.44849H9.689C10.838 5.44849 12.1112 5.75903 13.4466 6.38012C15.8999 7.49808 17.2042 9.70295 17.2973 13.0258C17.2352 15.7896 16.1483 17.7461 14.0677 18.8951C14.6577 19.0193 15.2478 19.2367 15.8999 19.4851C18.6016 20.541 20.0301 22.7148 20.1233 25.9755C20.0612 27.7767 19.5643 29.1431 18.6327 30.1679C17.7011 31.1616 16.5831 31.8759 15.3409 32.2796C14.0987 32.7143 12.9808 32.9007 12.0181 32.9007ZM1.45956 18.6466L9.53373 18.6156C10.4033 18.6156 11.2728 18.4914 12.1734 18.2119C13.0429 17.9634 13.8814 17.4045 14.6577 16.597C15.4341 15.7896 15.8067 14.6096 15.8378 13.0258C15.8378 10.4483 14.813 8.67815 12.7944 7.65336C11.8939 7.24965 11.0243 7.00121 10.1238 6.90805C9.93744 6.90805 9.81322 6.90805 9.72005 6.87699H1.45956V18.6466ZM11.987 31.4722C13.0118 31.4722 14.1298 31.2237 15.403 30.7579C17.5147 29.9505 18.6016 28.3667 18.6637 26.0066C18.6016 23.429 17.5147 21.721 15.3409 20.8205C14.0366 20.2925 12.8566 20.0441 11.8318 20.0441L1.45956 20.0752V31.4722H11.987Z" fill="#FDFDFD"/>
<path d="M43.4453 32.9007H26.5827V5.44849H43.4453V6.87699H28.0112V18.274H41.023V19.7025H28.0112V31.4722H43.4142V32.9007H43.4453Z" fill="#FDFDFD"/>
<path d="M73.8787 32.9008H72.2949L68.6615 23.926H56.2708L52.389 32.9008H50.8052L62.7301 5.38647L73.8787 32.9008ZM68.0715 22.4975L62.668 9.14407L56.8919 22.4975H68.0715Z" fill="#FDFDFD"/>
<path d="M88.0394 32.9007H80.0274V5.44849H88.0084C90.3996 5.44849 92.5734 6.03852 94.5298 7.18754C96.5173 8.33655 98.1011 9.88928 99.3122 11.8147C100.523 13.74 101.175 15.9449 101.331 18.3982C101.331 20.0441 101.207 21.4416 100.927 22.5906C100.151 25.665 98.598 28.1804 96.2378 30.0747C93.8777 31.969 91.1449 32.9007 88.0394 32.9007ZM88.0394 31.4722C90.8033 31.4722 93.2255 30.6337 95.3372 28.9257C97.4489 27.2177 98.8464 25.0128 99.5296 22.249C99.778 21.2242 99.9023 20.1683 99.9023 19.0814C99.9023 16.6902 99.3122 14.5164 98.1011 12.56C97.0142 10.8209 95.5857 9.45452 93.8466 8.42972C92.0765 7.40492 90.1511 6.87699 88.0394 6.87699H81.518V31.4411H88.0394V31.4722Z" fill="#FDFDFD"/>
<path d="M117.262 33.0559C115.523 33.0559 113.846 32.6522 112.231 31.8448C110.616 31.0374 109.436 29.7641 108.629 28.0872L109.964 27.5282C110.771 29.2673 112.076 30.4473 113.815 31.0684C114.964 31.4721 116.082 31.6585 117.231 31.6585C119.374 31.6585 121.175 31.0684 122.696 29.8573C123.752 29.0188 124.311 27.8698 124.373 26.3792C124.342 24.6091 123.069 22.9943 120.585 21.5347C119.56 20.9447 118.504 20.3857 117.479 19.9199C114.374 18.4603 112.045 16.8144 110.492 14.9822C109.591 13.9264 109.157 12.8705 109.157 11.7525C109.157 10.2309 109.685 8.92659 110.709 7.77757C111.734 6.62855 113.194 5.85219 115.088 5.41743C115.864 5.2311 116.672 5.13794 117.479 5.13794C118.069 5.13794 118.877 5.2311 119.87 5.38638C120.864 5.54165 121.982 6.00747 123.162 6.81488C124.342 7.59124 125.243 8.7092 125.895 10.1067L124.56 10.6346C123.721 8.89553 122.448 7.71546 120.709 7.09437C119.622 6.72172 118.535 6.53539 117.479 6.53539C115.305 6.53539 113.504 7.15648 112.076 8.39866C111.113 9.20608 110.647 10.3551 110.647 11.8147C110.74 12.8084 111.237 13.7711 112.169 14.6717C113.101 15.5722 114.094 16.3797 115.212 17.0629C116.33 17.7461 117.324 18.274 118.131 18.6466C119.218 19.1746 120.336 19.7646 121.516 20.4478C122.665 21.131 123.659 21.9695 124.529 22.9322C125.398 23.8949 125.802 25.0439 125.864 26.3482C125.833 27.963 125.243 29.3294 124.125 30.4784C123.007 31.6274 121.454 32.4038 119.498 32.8075C118.752 32.9938 118.038 33.0559 117.262 33.0559Z" fill="#FDFDFD"/>
<path d="M155.49 33.118L148.378 11.6283L140.646 33.118L131.081 5.44849H132.634L140.677 28.7394L148.409 7.18754L155.49 28.4909L162.881 5.44849H164.402L155.49 33.118Z" fill="#FDFDFD"/>
<path d="M223.344 32.9007H221.605L213.282 20.1994H206.202V32.9007H204.773V5.44849H214.959C217.537 5.44849 219.617 6.16274 221.263 7.6223C222.723 8.9887 223.468 10.883 223.499 13.2742C223.499 15.1996 222.878 16.7834 221.636 17.9634C220.891 18.6466 220.083 19.1746 219.183 19.4851C217.785 19.982 216.419 20.2304 215.052 20.2304L223.344 32.9007ZM214.866 18.7709C215.021 18.7709 215.394 18.7398 215.953 18.7088C216.543 18.6777 217.257 18.5224 218.158 18.274C219.058 18.0256 219.866 17.5597 220.58 16.9076C221.512 16.007 221.978 14.7959 221.978 13.3053C221.978 11.3178 221.387 9.76506 220.238 8.67815C218.872 7.49808 217.133 6.87699 214.959 6.87699H206.202V18.7398H214.866V18.7709Z" fill="#FDFDFD"/>
<path d="M249.833 32.9007H248.094L237.132 16.4418L232.816 20.1683V32.9007H231.387V5.44849H232.816V18.2119L247.597 5.44849H249.802L238.219 15.4791L249.833 32.9007Z" fill="#FDFDFD"/>
<path d="M264.367 33.0559C262.628 33.0559 260.951 32.6522 259.336 31.8448C257.721 31.0374 256.541 29.7641 255.734 28.0872L257.069 27.5282C257.876 29.2673 259.181 30.4473 260.92 31.0684C262.069 31.4721 263.187 31.6585 264.336 31.6585C266.479 31.6585 268.28 31.0684 269.801 29.8573C270.857 29.0188 271.416 27.8698 271.478 26.3792C271.447 24.6091 270.174 22.9943 267.69 21.5347C266.665 20.9447 265.609 20.3857 264.584 19.9199C261.479 18.4603 259.15 16.8144 257.597 14.9822C256.696 13.9264 256.262 12.8705 256.262 11.7525C256.262 10.2309 256.79 8.92659 257.814 7.77757C258.839 6.62855 260.299 5.85219 262.193 5.41743C262.969 5.2311 263.777 5.13794 264.584 5.13794C265.174 5.13794 265.982 5.2311 266.975 5.38638C267.969 5.54165 269.087 6.00747 270.267 6.81488C271.447 7.59124 272.348 8.7092 273 10.1067L271.665 10.6346C270.826 8.89553 269.553 7.71546 267.814 7.09437C266.727 6.72172 265.64 6.53539 264.584 6.53539C262.41 6.53539 260.609 7.15648 259.181 8.39866C258.218 9.20608 257.752 10.3551 257.752 11.8147C257.845 12.8084 258.342 13.7711 259.274 14.6717C260.206 15.5722 261.199 16.3797 262.317 17.0629C263.435 17.7461 264.429 18.274 265.236 18.6466C266.323 19.1746 267.441 19.7646 268.621 20.4478C269.77 21.131 270.764 21.9695 271.634 22.9322C272.472 23.8949 272.907 25.0439 272.969 26.3482C272.938 27.963 272.348 29.3294 271.23 30.4784C270.081 31.6274 268.559 32.4038 266.603 32.8075C265.857 32.9938 265.112 33.0559 264.367 33.0559Z" fill="#FDFDFD"/>
<path d="M196.855 12.8395C195.333 12.8395 194.091 11.5973 194.091 10.0756C194.091 8.55395 195.333 7.31177 196.855 7.31177C198.376 7.31177 199.618 8.55395 199.618 10.0756C199.618 11.5973 198.376 12.8395 196.855 12.8395ZM196.855 7.96391C195.674 7.96391 194.743 8.9266 194.743 10.0756C194.743 11.2246 195.706 12.1873 196.855 12.1873C198.035 12.1873 198.966 11.2246 198.966 10.0756C198.966 8.9266 198.035 7.96391 196.855 7.96391Z" fill="#E5C04E"/>
<path d="M198.935 20.3548C197.413 20.3548 196.171 19.1127 196.171 17.591C196.171 16.0693 197.413 14.8271 198.935 14.8271C200.457 14.8271 201.699 16.0693 201.699 17.591C201.699 19.1127 200.457 20.3548 198.935 20.3548ZM198.935 15.4793C197.755 15.4793 196.823 16.442 196.823 17.591C196.823 18.7711 197.786 19.7027 198.935 19.7027C200.115 19.7027 201.047 18.74 201.047 17.591C201.078 16.4109 200.115 15.4793 198.935 15.4793Z" fill="#E5C04E"/>
<path d="M197.817 29.2054C195.923 29.2054 194.37 27.6527 194.37 25.7583C194.37 23.864 195.923 22.3113 197.817 22.3113C199.712 22.3113 201.264 23.864 201.264 25.7583C201.264 27.6527 199.712 29.2054 197.817 29.2054ZM197.817 22.9324C196.265 22.9324 194.991 24.2056 194.991 25.7583C194.991 27.3111 196.265 28.5843 197.817 28.5843C199.37 28.5843 200.643 27.3111 200.643 25.7583C200.643 24.2056 199.37 22.9324 197.817 22.9324Z" fill="#E5C04E"/>
<path d="M191.389 35.3851C189.495 35.3851 187.942 33.8323 187.942 31.938C187.942 30.0437 189.495 28.491 191.389 28.491C193.283 28.491 194.836 30.0437 194.836 31.938C194.836 33.8323 193.283 35.3851 191.389 35.3851ZM191.389 29.081C189.836 29.081 188.563 30.3542 188.563 31.907C188.563 33.4597 189.836 34.7329 191.389 34.7329C192.942 34.7329 194.215 33.4597 194.215 31.907C194.215 30.3542 192.942 29.081 191.389 29.081Z" fill="#E5C04E"/>
<path d="M197.01 15.7587C196.358 15.7587 195.736 15.355 195.55 14.7028C195.271 13.8954 195.736 13.0259 196.544 12.7464L199.059 11.9079C199.867 11.6284 200.736 12.0942 201.016 12.9017C201.14 13.3054 201.109 13.7091 200.923 14.0817C200.736 14.4544 200.426 14.7339 200.022 14.8581L197.507 15.6966C197.32 15.7276 197.165 15.7587 197.01 15.7587ZM199.525 12.4358C199.432 12.4358 199.339 12.4358 199.246 12.4979L196.73 13.3364C196.233 13.4917 195.985 14.0196 196.14 14.5165C196.295 15.0134 196.823 15.2618 197.32 15.1065L199.836 14.2681C200.053 14.2059 200.27 14.0196 200.364 13.8022C200.457 13.5849 200.488 13.3364 200.426 13.088C200.364 12.8395 200.177 12.6532 199.96 12.5601C199.805 12.4669 199.649 12.4358 199.525 12.4358Z" fill="#E5C04E"/>
<path d="M200.364 23.2118C200.302 23.2118 200.208 23.2118 200.146 23.2118L197.507 22.8392C197.103 22.7771 196.73 22.5597 196.482 22.2492C196.233 21.9076 196.109 21.5038 196.171 21.1001C196.296 20.2617 197.072 19.6716 197.91 19.7648L200.55 20.1375C201.389 20.2617 201.979 21.038 201.885 21.8765C201.823 22.2802 201.606 22.6529 201.295 22.9013C201.016 23.0876 200.705 23.2118 200.364 23.2118ZM200.24 22.5597C200.736 22.6218 201.202 22.2802 201.264 21.7833C201.326 21.2865 200.985 20.8207 200.488 20.7585L197.848 20.3859C197.6 20.3548 197.351 20.4169 197.165 20.5722C196.979 20.7275 196.855 20.9449 196.792 21.1933C196.761 21.4417 196.824 21.6902 196.979 21.8765C197.134 22.0628 197.351 22.187 197.6 22.2492L200.24 22.5597Z" fill="#E5C04E"/>
<path d="M195.83 31.6587C195.426 31.6587 195.022 31.5034 194.743 31.1928L192.88 29.3296C192.6 29.0501 192.414 28.6464 192.414 28.2427C192.414 27.839 192.569 27.4352 192.88 27.1558C193.159 26.8763 193.563 26.6899 193.967 26.6899C194.37 26.6899 194.774 26.8452 195.053 27.1558L196.917 29.019C197.507 29.6091 197.507 30.6028 196.917 31.2239C196.606 31.5034 196.202 31.6587 195.83 31.6587ZM195.178 30.7581C195.55 31.1307 196.109 31.1307 196.482 30.7581C196.855 30.3854 196.855 29.8264 196.482 29.4538L194.619 27.5905C194.432 27.4042 194.215 27.311 193.967 27.311C193.718 27.311 193.501 27.4042 193.314 27.5905C193.128 27.7768 193.035 27.9942 193.035 28.2427C193.035 28.4911 193.128 28.7085 193.314 28.8948L195.178 30.7581Z" fill="#E5C04E"/>
<path d="M194.432 8.86456C193.966 8.86456 193.283 8.67824 192.445 7.80871C191.7 7.0634 191.078 6.47337 188.874 5.23119C188.128 4.79643 187.259 4.42377 186.203 4.08217C185.985 4.02006 185.302 3.74057 184.961 3.02632C184.712 2.49839 184.712 1.84625 184.992 1.16305C185.023 1.06989 185.271 0.448797 185.986 0.169307C186.7 -0.141238 187.6 -0.0170202 188.687 0.479852C189.743 0.976723 190.706 1.4736 191.762 2.09469C193.066 2.83999 194.339 3.64741 195.737 5.20013C195.799 5.26224 196.637 6.19388 196.42 7.21868C196.296 7.87082 195.799 8.36769 194.96 8.74035C194.929 8.7714 194.712 8.86456 194.432 8.86456ZM186.886 0.60407C186.638 0.60407 186.451 0.635124 186.265 0.728288C185.768 0.945669 185.613 1.38043 185.613 1.38043V1.41149C185.395 1.93941 185.364 2.40523 185.551 2.77788C185.737 3.18159 186.11 3.43003 186.389 3.52319C187.476 3.86479 188.377 4.2685 189.184 4.70326C191.451 5.9765 192.134 6.59759 192.88 7.37395C193.966 8.49191 194.65 8.24347 194.681 8.21242H194.712C195.364 7.93293 195.737 7.56027 195.83 7.12551C195.985 6.41126 195.302 5.66595 195.302 5.6349C193.967 4.14428 192.786 3.39897 191.482 2.65367C190.426 2.03258 189.464 1.5357 188.439 1.06989C187.849 0.759342 187.321 0.60407 186.886 0.60407Z" fill="#E5C04E"/>
<path d="M170.117 12.8395C168.595 12.8395 167.353 11.5973 167.353 10.0756C167.353 8.55395 168.595 7.31177 170.117 7.31177C171.638 7.31177 172.881 8.55395 172.881 10.0756C172.881 11.5973 171.638 12.8395 170.117 12.8395ZM170.117 7.96391C168.937 7.96391 168.005 8.9266 168.005 10.0756C168.005 11.2246 168.968 12.1873 170.117 12.1873C171.266 12.1873 172.228 11.2246 172.228 10.0756C172.228 8.9266 171.297 7.96391 170.117 7.96391Z" fill="#E5C04E"/>
<path d="M168.036 20.3548C166.514 20.3548 165.272 19.1127 165.272 17.591C165.272 16.0693 166.514 14.8271 168.036 14.8271C169.558 14.8271 170.8 16.0693 170.8 17.591C170.8 19.1127 169.526 20.3548 168.036 20.3548ZM168.036 15.4793C166.856 15.4793 165.924 16.442 165.924 17.591C165.924 18.7711 166.887 19.7027 168.036 19.7027C169.185 19.7027 170.148 18.74 170.148 17.591C170.148 16.4109 169.185 15.4793 168.036 15.4793Z" fill="#E5C04E"/>
<path d="M169.154 29.2054C167.26 29.2054 165.707 27.6527 165.707 25.7583C165.707 23.864 167.26 22.3113 169.154 22.3113C171.048 22.3113 172.601 23.864 172.601 25.7583C172.632 27.6527 171.079 29.2054 169.154 29.2054ZM169.154 22.9324C167.601 22.9324 166.328 24.2056 166.328 25.7583C166.328 27.3111 167.601 28.5843 169.154 28.5843C170.707 28.5843 171.98 27.3111 171.98 25.7583C171.98 24.2056 170.707 22.9324 169.154 22.9324Z" fill="#E5C04E"/>
<path d="M175.582 35.3851C173.688 35.3851 172.135 33.8323 172.135 31.938C172.135 30.0437 173.688 28.491 175.582 28.491C177.476 28.491 179.029 30.0437 179.029 31.938C179.06 33.8323 177.508 35.3851 175.582 35.3851ZM175.582 29.081C174.029 29.081 172.756 30.3542 172.756 31.907C172.756 33.4597 174.029 34.7329 175.582 34.7329C177.135 34.7329 178.408 33.4597 178.408 31.907C178.408 30.3542 177.166 29.081 175.582 29.081Z" fill="#E5C04E"/>
<path d="M169.961 15.7587C169.806 15.7587 169.651 15.7276 169.464 15.6655L166.949 14.8271C166.545 14.7028 166.235 14.4233 166.048 14.0507C165.862 13.678 165.831 13.2743 165.955 12.8706C166.235 12.0632 167.104 11.6284 167.912 11.8769L170.427 12.7153C171.235 12.9948 171.669 13.8644 171.421 14.6718C171.235 15.3239 170.613 15.7587 169.961 15.7587ZM167.446 12.4359C167.073 12.4359 166.701 12.6843 166.576 13.0569C166.514 13.2743 166.514 13.5538 166.639 13.7712C166.763 13.9886 166.949 14.1439 167.166 14.237L169.682 15.0755C170.179 15.2308 170.676 14.9823 170.862 14.4855C171.017 13.9886 170.769 13.4917 170.272 13.3054L167.756 12.4669C167.663 12.4669 167.57 12.4359 167.446 12.4359Z" fill="#E5C04E"/>
<path d="M183.78 3.11937H183.066C182.197 3.11937 181.513 2.43617 181.513 1.56664C181.513 0.697115 182.197 0.013916 183.066 0.013916H183.78C184.65 0.013916 185.333 0.697115 185.333 1.56664C185.333 2.43617 184.65 3.11937 183.78 3.11937ZM183.097 0.635006C182.6 0.635006 182.166 1.03871 182.166 1.56664C182.166 2.09457 182.569 2.49828 183.097 2.49828H183.812C184.308 2.49828 184.743 2.09457 184.743 1.56664C184.743 1.03871 184.339 0.635006 183.812 0.635006H183.097Z" fill="#E5C04E"/>
<path d="M166.607 23.2118C166.266 23.2118 165.955 23.0876 165.676 22.9013C165.334 22.6529 165.117 22.2802 165.086 21.8765C165.024 21.4728 165.148 21.0691 165.396 20.7275C165.645 20.3859 166.017 20.1685 166.421 20.1374L169.061 19.7648C169.899 19.6406 170.707 20.2306 170.8 21.1001C170.924 21.9386 170.334 22.746 169.464 22.8392L166.825 23.2118L166.794 22.9013L166.825 23.2118C166.732 23.1808 166.67 23.2118 166.607 23.2118ZM169.247 20.3548C169.216 20.3548 169.154 20.3548 169.123 20.3548L166.483 20.7275C166.235 20.7585 166.017 20.8828 165.862 21.1001C165.707 21.2865 165.645 21.5349 165.676 21.7833C165.707 22.0318 165.831 22.2491 166.048 22.4044C166.235 22.5597 166.483 22.6218 166.732 22.5908L169.371 22.2181C169.868 22.156 170.241 21.6902 170.148 21.1933C170.086 20.6964 169.682 20.3548 169.247 20.3548Z" fill="#E5C04E"/>
<path d="M171.141 31.6586C170.738 31.6586 170.334 31.5033 170.054 31.1927C169.775 30.9133 169.589 30.5095 169.589 30.1058C169.589 29.7021 169.744 29.2984 170.054 29.0189L171.918 27.1557C172.508 26.5656 173.501 26.5656 174.123 27.1557C174.402 27.4352 174.588 27.8389 174.588 28.2426C174.588 28.6463 174.433 29.05 174.123 29.3295L172.259 31.1927C171.949 31.5033 171.545 31.6586 171.141 31.6586ZM173.036 27.3109C172.787 27.3109 172.57 27.4041 172.383 27.5904L170.52 29.4537C170.148 29.8263 170.148 30.3853 170.52 30.758C170.893 31.1306 171.452 31.1306 171.825 30.758L173.688 28.8947C173.874 28.7084 173.967 28.491 173.967 28.2426C173.967 27.9941 173.874 27.7768 173.688 27.5904C173.501 27.4041 173.253 27.3109 173.036 27.3109Z" fill="#E5C04E"/>
<path d="M172.539 8.86456C172.259 8.86456 172.042 8.7714 171.98 8.74035C171.141 8.36769 170.644 7.87082 170.52 7.21868C170.303 6.19388 171.141 5.26224 171.203 5.20013C172.601 3.64741 173.874 2.83999 175.178 2.09469C176.265 1.4736 177.228 0.976723 178.253 0.479852C179.34 -0.0170202 180.24 -0.141238 180.955 0.169307C181.669 0.479852 181.917 1.06989 181.948 1.16305C182.228 1.84625 182.228 2.49839 181.979 3.02632C181.638 3.74057 180.955 4.02006 180.737 4.08217C179.712 4.42377 178.812 4.79643 178.066 5.23119C175.862 6.47337 175.241 7.03235 174.495 7.80871C173.688 8.67824 173.005 8.86456 172.539 8.86456ZM172.29 8.18136C172.352 8.21242 173.005 8.46086 174.091 7.34289C174.837 6.56653 175.551 5.94544 177.787 4.67221C178.563 4.23744 179.495 3.83374 180.582 3.49214C180.861 3.39897 181.265 3.15054 181.42 2.74683C181.607 2.37418 181.576 1.90836 181.358 1.38043V1.34938C181.358 1.31832 181.203 0.914614 180.706 0.697233C180.178 0.479852 179.433 0.573015 178.532 1.00778C177.507 1.50465 176.545 2.00152 175.489 2.59156C174.185 3.33686 173.005 4.08217 171.669 5.57279C171.669 5.57279 170.986 6.3181 171.141 7.0634C171.234 7.49817 171.607 7.83977 172.259 8.15031L172.29 8.18136Z" fill="#E5C04E"/>
<path d="M186.513 39.6396H180.489L177.476 34.4225L180.489 29.2053H186.513L189.526 34.4225L186.513 39.6396ZM180.861 39.0185H186.141L188.78 34.4225L186.141 29.8264H180.861L178.222 34.4225L180.861 39.0185Z" fill="#E5C04E"/>
<path d="M185.582 38.0247H181.42L179.34 34.4224L181.42 30.8201H185.582L187.662 34.4224L185.582 38.0247ZM181.793 37.4036H185.24L186.948 34.4224L185.24 31.4412H181.793L180.085 34.4224L181.793 37.4036Z" fill="#E5C04E"/>
</svg>
